<?xml version="1.0" encoding="UTF-8"?>
<svg id="Ebene_1" xmlns="http://www.w3.org/2000/svg" version="1.1" viewBox="0 0 800 800">
  <!-- Generator: Adobe Illustrator 29.2.1, SVG Export Plug-In . SVG Version: 2.1.0 Build 116)  -->
  <defs>
    <style>
      .st0 {
        fill: #ffdb66;
      }

      .st1 {
        fill: #29a197;
      }

      .st2 {
        fill: #acb5bc;
      }
    </style>
  </defs>
  <g id="SVGRepo_iconCarrier">
    <path class="st1" d="M452,221.5l36.1,6.8,55.8,67.5-44.7-7.8-47.2-66.4h0ZM384.2,333.7l90,18.6,110.5,138.6-100.6-9.6-99.9-147.6h0ZM145.2,283.6l106.6,25.9,91.1,159-126.8-11.5-71-173.4Z"/>
    <path class="st0" d="M154.8,283.6l86,181.4-34.4-6.7-68.2-177.8,16.6,3h0Z"/>
    <path class="st1" d="M180.2,139.2l88.2,24.5,42.5,84.7-104.6-22.9-26.2-86.2Z"/>
    <path class="st0" d="M194.5,148.8l44.5,76.9-25.3-10.4-33.6-66.6h14.3Z"/>
    <path class="st2" d="M773.4,542.7c-.5,0-1.1,0-1.6,0l-567.4-53c-6.1-.6-11.4-4.4-13.9-10.1L25.2,99.9c-3.7-8.5.2-18.5,8.7-22.2,3.5-1.5,7.5-1.8,11.2-.8l454.6,123.9c3.1.9,5.9,2.6,8.1,5l278.1,308.8c6.2,6.9,5.7,17.6-1.2,23.8-3.1,2.8-7.1,4.3-11.3,4.3h0ZM217.5,457l514.4,48-245.9-273L70.1,118.7l147.3,338.3Z"/>
    <path class="st2" d="M479.7,353.8c-.5,0-1.1,0-1.6-.2l-124-24.1c-2.2-.4-4.2-1.8-5.5-3.7l-44.8-68.9c-2.6-3.9-1.5-9.1,2.4-11.7,1.9-1.3,4.3-1.7,6.5-1.2l121.4,27.6c2,.5,3.8,1.6,5,3.3l47.4,65.4c2.7,3.8,1.9,9-1.9,11.8-1.4,1-3.2,1.6-4.9,1.6h0ZM360.8,313.6l99.5,19.4-33-45.6-98.1-22.2,31.5,48.4ZM216.2,236.7c-3,0-5.9-1.6-7.3-4.3l-51.7-91.3c-2.3-4.1-.9-9.2,3.2-11.5,4.1-2.3,9.2-.9,11.5,3.2l51.7,91.3c2.3,4.1.9,9.2-3.2,11.5-1.3.7-2.7,1.1-4.1,1.1Z"/>
    <path class="st2" d="M320.1,256.8c-2.9,0-5.5-1.4-7.1-3.8l-52.2-80.4c-2.3-4.1-.8-9.2,3.2-11.5,3.7-2.1,8.4-1.1,10.9,2.3l52.2,80.4c2.5,3.9,1.4,9.1-2.5,11.7-1.4.9-3,1.4-4.6,1.4h0ZM416,278c-2.7,0-5.2-1.3-6.8-3.4l-55.9-75.8c-2.8-3.7-2-9,1.8-11.8s9-2,11.8,1.8l55.9,75.8c2.8,3.7,2,9-1.8,11.8-1.4,1.1-3.2,1.6-5,1.6h0ZM504.4,302.8c-2.5,0-4.9-1.1-6.5-3.1l-64.3-79c-2.9-3.6-2.4-8.9,1.2-11.9s8.9-2.4,11.9,1.2l64.3,79c2.9,3.6,2.4,8.9-1.2,11.9-1.5,1.2-3.4,1.9-5.3,1.9h0Z"/>
    <path class="st2" d="M571,320.3c-.7,0-1.3,0-1.9-.2L95.5,208.9c-4.5-1.2-7.2-5.8-5.9-10.3,1.2-4.3,5.4-6.9,9.8-6.1l473.7,111.1c4.5,1.1,7.3,5.6,6.3,10.1-.9,3.8-4.3,6.5-8.2,6.5ZM622.7,385.7c-.6,0-1.1,0-1.7-.2l-493.4-101.6c-4.6-.9-7.5-5.4-6.6-10,.9-4.6,5.4-7.5,10-6.6l493.4,101.6c4.6.9,7.5,5.4,6.6,9.9-.8,3.9-4.3,6.8-8.3,6.8h0Z"/>
    <path class="st2" d="M352.3,483c-3,0-5.8-1.6-7.3-4.3l-98.6-173.3c-2.4-4-1.1-9.2,2.9-11.6s9.2-1.1,11.6,2.9c0,.1.1.2.2.3l98.6,173.3c2.3,4,.9,9.2-3.2,11.5-1.3.7-2.7,1.1-4.1,1.1h0ZM484,499.3c-2.8,0-5.4-1.4-7-3.7l-109.2-162.6c-2.6-3.9-1.6-9.1,2.3-11.7,3.9-2.6,9.1-1.6,11.7,2.3h0l109.2,162.6c2.6,3.9,1.6,9.1-2.3,11.7-1.4.9-3,1.4-4.7,1.4h0ZM594.3,507.9c-2.6,0-5.1-1.2-6.7-3.3l-114.5-147.2c-3-3.6-2.4-8.9,1.2-11.9,3.6-3,8.9-2.4,11.9,1.2,0,.1.2.2.3.3l114.5,147.2c2.9,3.7,2.2,9-1.5,11.8-1.5,1.2-3.3,1.8-5.2,1.8h0ZM687.3,519.1c-2.5,0-4.9-1.1-6.5-3l-120.3-144.3c-3-3.6-2.5-8.9,1.1-11.9s8.9-2.5,11.9,1.1l120.2,144.3c3,3.6,2.5,8.9-1.1,11.9-1.5,1.3-3.4,2-5.4,2h0Z"/>
    <path class="st2" d="M676.8,716H216.2c-9.3,0-16.9-7.6-16.9-16.9,0-3.6,1.1-7.1,3.3-10l146.5-200c5.6-7.5,16.1-9,23.6-3.5,7.4,5.5,9,15.9,3.6,23.4l-126.9,173.2h388l-163.1-171.6c-6.4-6.8-6.1-17.4.6-23.8s17.4-6.1,23.8.6l190.1,200c6.4,6.7,6.2,17.4-.5,23.8-3.1,3-7.3,4.7-11.7,4.7Z"/>
  </g>
</svg>